solid OpenSCAD_Model
  facet normal -0.442287 -0.896874 0
    outer loop
      vertex -29 7.77053 0
      vertex -22.1956 4.41499 5
      vertex -29 7.77053 5
    endloop
  endfacet
  facet normal -0.442287 -0.896874 -0
    outer loop
      vertex -22.1956 4.41499 5
      vertex -29 7.77053 0
      vertex -22.1956 4.41499 0
    endloop
  endfacet
  facet normal -0.0654032 -0.997859 0
    outer loop
      vertex -7.57052 0.496199 0
      vertex 0 0 5
      vertex -7.57052 0.496199 5
    endloop
  endfacet
  facet normal -0.0654032 -0.997859 -0
    outer loop
      vertex 0 0 5
      vertex -7.57052 0.496199 0
      vertex 0 0 0
    endloop
  endfacet
  facet normal -0 0 1
    outer loop
      vertex 49.0294 29 5
      vertex 46.0145 22.6918 5
      vertex 50.2295 29 5
    endloop
  endfacet
  facet normal -0 0 1
    outer loop
      vertex 45.2211 23.3006 5
      vertex 46.0145 22.6918 5
      vertex 49.0294 29 5
    endloop
  endfacet
  facet normal 0 0 1
    outer loop
      vertex 45.2211 23.3006 5
      vertex 41.0122 16.9878 5
      vertex 46.0145 22.6918 5
    endloop
  endfacet
  facet normal -0 0 1
    outer loop
      vertex 40.3051 17.6949 5
      vertex 41.0122 16.9878 5
      vertex 45.2211 23.3006 5
    endloop
  endfacet
  facet normal 0 0 1
    outer loop
      vertex 40.3051 17.6949 5
      vertex 35.3082 11.9855 5
      vertex 41.0122 16.9878 5
    endloop
  endfacet
  facet normal -0 0 1
    outer loop
      vertex 34.6994 12.7789 5
      vertex 35.3082 11.9855 5
      vertex 40.3051 17.6949 5
    endloop
  endfacet
  facet normal 0 0 1
    outer loop
      vertex 34.6994 12.7789 5
      vertex 29 7.77053 5
      vertex 35.3082 11.9855 5
    endloop
  endfacet
  facet normal -0 0 1
    outer loop
      vertex 28.5 8.63655 5
      vertex 29 7.77053 5
      vertex 34.6994 12.7789 5
    endloop
  endfacet
  facet normal 0 0 1
    outer loop
      vertex 28.5 8.63655 5
      vertex 22.1956 4.41499 5
      vertex 29 7.77053 5
    endloop
  endfacet
  facet normal -0 0 1
    outer loop
      vertex 21.813 5.33887 5
      vertex 22.1956 4.41499 5
      vertex 28.5 8.63655 5
    endloop
  endfacet
  facet normal 0 0 1
    outer loop
      vertex 21.813 5.33887 5
      vertex 15.0115 1.9763 5
      vertex 22.1956 4.41499 5
    endloop
  endfacet
  facet normal -0 0 1
    outer loop
      vertex 14.7527 2.94223 5
      vertex 15.0115 1.9763 5
      vertex 21.813 5.33887 5
    endloop
  endfacet
  facet normal 0 0 1
    outer loop
      vertex 14.7527 2.94223 5
      vertex 7.57052 0.496199 5
      vertex 15.0115 1.9763 5
    endloop
  endfacet
  facet normal -0 0 1
    outer loop
      vertex 7.43999 1.48764 5
      vertex 7.57052 0.496199 5
      vertex 14.7527 2.94223 5
    endloop
  endfacet
  facet normal -0 0 1
    outer loop
      vertex 0 1 5
      vertex 7.57052 0.496199 5
      vertex 7.43999 1.48764 5
    endloop
  endfacet
  facet normal 0 0 1
    outer loop
      vertex 0 1 5
      vertex 0 0 5
      vertex 7.57052 0.496199 5
    endloop
  endfacet
  facet normal 0 0 1
    outer loop
      vertex -7.43999 1.48764 5
      vertex 0 0 5
      vertex 0 1 5
    endloop
  endfacet
  facet normal 0 0 1
    outer loop
      vertex -7.43999 1.48764 5
      vertex -7.57052 0.496199 5
      vertex 0 0 5
    endloop
  endfacet
  facet normal 0 0 1
    outer loop
      vertex -14.7527 2.94223 5
      vertex -7.57052 0.496199 5
      vertex -7.43999 1.48764 5
    endloop
  endfacet
  facet normal 0 0 1
    outer loop
      vertex -14.7527 2.94223 5
      vertex -15.0115 1.9763 5
      vertex -7.57052 0.496199 5
    endloop
  endfacet
  facet normal 0 0 1
    outer loop
      vertex -21.813 5.33887 5
      vertex -15.0115 1.9763 5
      vertex -14.7527 2.94223 5
    endloop
  endfacet
  facet normal 0 0 1
    outer loop
      vertex -21.813 5.33887 5
      vertex -22.1956 4.41499 5
      vertex -15.0115 1.9763 5
    endloop
  endfacet
  facet normal 0 0 1
    outer loop
      vertex -28.5 8.63655 5
      vertex -22.1956 4.41499 5
      vertex -21.813 5.33887 5
    endloop
  endfacet
  facet normal 0 0 1
    outer loop
      vertex -28.5 8.63655 5
      vertex -29 7.77053 5
      vertex -22.1956 4.41499 5
    endloop
  endfacet
  facet normal 0 0 1
    outer loop
      vertex -34.6994 12.7789 5
      vertex -29 7.77053 5
      vertex -28.5 8.63655 5
    endloop
  endfacet
  facet normal 0 0 1
    outer loop
      vertex -34.6994 12.7789 5
      vertex -35.3082 11.9855 5
      vertex -29 7.77053 5
    endloop
  endfacet
  facet normal 0 0 1
    outer loop
      vertex -40.3051 17.6949 5
      vertex -35.3082 11.9855 5
      vertex -34.6994 12.7789 5
    endloop
  endfacet
  facet normal 0 0 1
    outer loop
      vertex -40.3051 17.6949 5
      vertex -41.0122 16.9878 5
      vertex -35.3082 11.9855 5
    endloop
  endfacet
  facet normal 0 0 1
    outer loop
      vertex -45.2211 23.3006 5
      vertex -41.0122 16.9878 5
      vertex -40.3051 17.6949 5
    endloop
  endfacet
  facet normal 0 0 1
    outer loop
      vertex -45.2211 23.3006 5
      vertex -46.0145 22.6918 5
      vertex -41.0122 16.9878 5
    endloop
  endfacet
  facet normal 0 0 1
    outer loop
      vertex -49.0294 29 5
      vertex -46.0145 22.6918 5
      vertex -45.2211 23.3006 5
    endloop
  endfacet
  facet normal 0 0 1
    outer loop
      vertex -46.0145 22.6918 5
      vertex -49.0294 29 5
      vertex -50.2295 29 5
    endloop
  endfacet
  facet normal -0.321441 -0.946929 0
    outer loop
      vertex -22.1956 4.41499 0
      vertex -15.0115 1.9763 5
      vertex -22.1956 4.41499 5
    endloop
  endfacet
  facet normal -0.321441 -0.946929 -0
    outer loop
      vertex -15.0115 1.9763 5
      vertex -22.1956 4.41499 0
      vertex -15.0115 1.9763 0
    endloop
  endfacet
  facet normal -0.83147 -0.55557 0
    outer loop
      vertex -46.0145 22.6918 0
      vertex -50.2295 29 5
      vertex -50.2295 29 0
    endloop
  endfacet
  facet normal -0.83147 -0.55557 0
    outer loop
      vertex -50.2295 29 5
      vertex -46.0145 22.6918 0
      vertex -46.0145 22.6918 5
    endloop
  endfacet
  facet normal 0.555567 -0.831472 0
    outer loop
      vertex 29 7.77053 0
      vertex 35.3082 11.9855 5
      vertex 29 7.77053 5
    endloop
  endfacet
  facet normal 0.555567 -0.831472 0
    outer loop
      vertex 35.3082 11.9855 5
      vertex 29 7.77053 0
      vertex 35.3082 11.9855 0
    endloop
  endfacet
  facet normal -0.555567 -0.831472 0
    outer loop
      vertex -35.3082 11.9855 0
      vertex -29 7.77053 5
      vertex -35.3082 11.9855 5
    endloop
  endfacet
  facet normal -0.555567 -0.831472 -0
    outer loop
      vertex -29 7.77053 5
      vertex -35.3082 11.9855 0
      vertex -29 7.77053 0
    endloop
  endfacet
  facet normal 0.0654032 -0.997859 0
    outer loop
      vertex 0 0 0
      vertex 7.57052 0.496199 5
      vertex 0 0 5
    endloop
  endfacet
  facet normal 0.0654032 -0.997859 0
    outer loop
      vertex 7.57052 0.496199 5
      vertex 0 0 0
      vertex 7.57052 0.496199 0
    endloop
  endfacet
  facet normal 0.83147 -0.55557 0
    outer loop
      vertex 46.0145 22.6918 5
      vertex 50.2295 29 0
      vertex 50.2295 29 5
    endloop
  endfacet
  facet normal 0.83147 -0.55557 0
    outer loop
      vertex 50.2295 29 0
      vertex 46.0145 22.6918 5
      vertex 46.0145 22.6918 0
    endloop
  endfacet
  facet normal -0.19509 -0.980785 0
    outer loop
      vertex -15.0115 1.9763 0
      vertex -7.57052 0.496199 5
      vertex -15.0115 1.9763 5
    endloop
  endfacet
  facet normal -0.19509 -0.980785 -0
    outer loop
      vertex -7.57052 0.496199 5
      vertex -15.0115 1.9763 0
      vertex -7.57052 0.496199 0
    endloop
  endfacet
  facet normal 0.659348 -0.751838 0
    outer loop
      vertex 35.3082 11.9855 0
      vertex 41.0122 16.9878 5
      vertex 35.3082 11.9855 5
    endloop
  endfacet
  facet normal 0.659348 -0.751838 0
    outer loop
      vertex 41.0122 16.9878 5
      vertex 35.3082 11.9855 0
      vertex 41.0122 16.9878 0
    endloop
  endfacet
  facet normal 0.19509 -0.980785 0
    outer loop
      vertex 7.57052 0.496199 0
      vertex 15.0115 1.9763 5
      vertex 7.57052 0.496199 5
    endloop
  endfacet
  facet normal 0.19509 -0.980785 0
    outer loop
      vertex 15.0115 1.9763 5
      vertex 7.57052 0.496199 0
      vertex 15.0115 1.9763 0
    endloop
  endfacet
  facet normal 0.751838 -0.659348 0
    outer loop
      vertex 41.0122 16.9878 5
      vertex 46.0145 22.6918 0
      vertex 46.0145 22.6918 5
    endloop
  endfacet
  facet normal 0.751838 -0.659348 0
    outer loop
      vertex 46.0145 22.6918 0
      vertex 41.0122 16.9878 5
      vertex 41.0122 16.9878 0
    endloop
  endfacet
  facet normal -0.751838 -0.659348 0
    outer loop
      vertex -41.0122 16.9878 0
      vertex -46.0145 22.6918 5
      vertex -46.0145 22.6918 0
    endloop
  endfacet
  facet normal -0.751838 -0.659348 0
    outer loop
      vertex -46.0145 22.6918 5
      vertex -41.0122 16.9878 0
      vertex -41.0122 16.9878 5
    endloop
  endfacet
  facet normal 0.321441 -0.946929 0
    outer loop
      vertex 15.0115 1.9763 0
      vertex 22.1956 4.41499 5
      vertex 15.0115 1.9763 5
    endloop
  endfacet
  facet normal 0.321441 -0.946929 0
    outer loop
      vertex 22.1956 4.41499 5
      vertex 15.0115 1.9763 0
      vertex 22.1956 4.41499 0
    endloop
  endfacet
  facet normal 0.442287 -0.896874 0
    outer loop
      vertex 22.1956 4.41499 0
      vertex 29 7.77053 5
      vertex 22.1956 4.41499 5
    endloop
  endfacet
  facet normal 0.442287 -0.896874 0
    outer loop
      vertex 29 7.77053 5
      vertex 22.1956 4.41499 0
      vertex 29 7.77053 0
    endloop
  endfacet
  facet normal 0 0 -1
    outer loop
      vertex 46.0145 22.6918 0
      vertex 49.0294 29 0
      vertex 50.2295 29 0
    endloop
  endfacet
  facet normal 0 0 -1
    outer loop
      vertex 46.0145 22.6918 0
      vertex 45.2211 23.3006 0
      vertex 49.0294 29 0
    endloop
  endfacet
  facet normal 0 0 -1
    outer loop
      vertex 41.0122 16.9878 0
      vertex 45.2211 23.3006 0
      vertex 46.0145 22.6918 0
    endloop
  endfacet
  facet normal 0 0 -1
    outer loop
      vertex 41.0122 16.9878 0
      vertex 40.3051 17.6949 0
      vertex 45.2211 23.3006 0
    endloop
  endfacet
  facet normal 0 0 -1
    outer loop
      vertex 35.3082 11.9855 0
      vertex 40.3051 17.6949 0
      vertex 41.0122 16.9878 0
    endloop
  endfacet
  facet normal 0 0 -1
    outer loop
      vertex 35.3082 11.9855 0
      vertex 34.6994 12.7789 0
      vertex 40.3051 17.6949 0
    endloop
  endfacet
  facet normal 0 0 -1
    outer loop
      vertex 29 7.77053 0
      vertex 34.6994 12.7789 0
      vertex 35.3082 11.9855 0
    endloop
  endfacet
  facet normal 0 0 -1
    outer loop
      vertex 29 7.77053 0
      vertex 28.5 8.63655 0
      vertex 34.6994 12.7789 0
    endloop
  endfacet
  facet normal 0 0 -1
    outer loop
      vertex 22.1956 4.41499 0
      vertex 28.5 8.63655 0
      vertex 29 7.77053 0
    endloop
  endfacet
  facet normal 0 0 -1
    outer loop
      vertex 22.1956 4.41499 0
      vertex 21.813 5.33887 0
      vertex 28.5 8.63655 0
    endloop
  endfacet
  facet normal 0 0 -1
    outer loop
      vertex 15.0115 1.9763 0
      vertex 21.813 5.33887 0
      vertex 22.1956 4.41499 0
    endloop
  endfacet
  facet normal 0 0 -1
    outer loop
      vertex 15.0115 1.9763 0
      vertex 14.7527 2.94223 0
      vertex 21.813 5.33887 0
    endloop
  endfacet
  facet normal 0 0 -1
    outer loop
      vertex 7.57052 0.496199 0
      vertex 14.7527 2.94223 0
      vertex 15.0115 1.9763 0
    endloop
  endfacet
  facet normal 0 0 -1
    outer loop
      vertex 7.57052 0.496199 0
      vertex 7.43999 1.48764 0
      vertex 14.7527 2.94223 0
    endloop
  endfacet
  facet normal 0 0 -1
    outer loop
      vertex 0 0 0
      vertex 7.43999 1.48764 0
      vertex 7.57052 0.496199 0
    endloop
  endfacet
  facet normal 0 0 -1
    outer loop
      vertex 0 0 0
      vertex 0 1 0
      vertex 7.43999 1.48764 0
    endloop
  endfacet
  facet normal 0 0 -1
    outer loop
      vertex 0 0 0
      vertex -7.43999 1.48764 0
      vertex 0 1 0
    endloop
  endfacet
  facet normal 0 0 -1
    outer loop
      vertex -7.57052 0.496199 0
      vertex -7.43999 1.48764 0
      vertex 0 0 0
    endloop
  endfacet
  facet normal 0 0 -1
    outer loop
      vertex -7.57052 0.496199 0
      vertex -14.7527 2.94223 0
      vertex -7.43999 1.48764 0
    endloop
  endfacet
  facet normal 0 0 -1
    outer loop
      vertex -15.0115 1.9763 0
      vertex -14.7527 2.94223 0
      vertex -7.57052 0.496199 0
    endloop
  endfacet
  facet normal 0 0 -1
    outer loop
      vertex -15.0115 1.9763 0
      vertex -21.813 5.33887 0
      vertex -14.7527 2.94223 0
    endloop
  endfacet
  facet normal 0 0 -1
    outer loop
      vertex -22.1956 4.41499 0
      vertex -21.813 5.33887 0
      vertex -15.0115 1.9763 0
    endloop
  endfacet
  facet normal 0 0 -1
    outer loop
      vertex -22.1956 4.41499 0
      vertex -28.5 8.63655 0
      vertex -21.813 5.33887 0
    endloop
  endfacet
  facet normal 0 0 -1
    outer loop
      vertex -29 7.77053 0
      vertex -28.5 8.63655 0
      vertex -22.1956 4.41499 0
    endloop
  endfacet
  facet normal 0 0 -1
    outer loop
      vertex -29 7.77053 0
      vertex -34.6994 12.7789 0
      vertex -28.5 8.63655 0
    endloop
  endfacet
  facet normal 0 0 -1
    outer loop
      vertex -35.3082 11.9855 0
      vertex -34.6994 12.7789 0
      vertex -29 7.77053 0
    endloop
  endfacet
  facet normal 0 0 -1
    outer loop
      vertex -35.3082 11.9855 0
      vertex -40.3051 17.6949 0
      vertex -34.6994 12.7789 0
    endloop
  endfacet
  facet normal 0 0 -1
    outer loop
      vertex -41.0122 16.9878 0
      vertex -40.3051 17.6949 0
      vertex -35.3082 11.9855 0
    endloop
  endfacet
  facet normal 0 0 -1
    outer loop
      vertex -41.0122 16.9878 0
      vertex -45.2211 23.3006 0
      vertex -40.3051 17.6949 0
    endloop
  endfacet
  facet normal 0 0 -1
    outer loop
      vertex -46.0145 22.6918 0
      vertex -45.2211 23.3006 0
      vertex -41.0122 16.9878 0
    endloop
  endfacet
  facet normal 0 0 -1
    outer loop
      vertex -46.0145 22.6918 0
      vertex -49.0294 29 0
      vertex -45.2211 23.3006 0
    endloop
  endfacet
  facet normal -0 -0 -1
    outer loop
      vertex -49.0294 29 0
      vertex -46.0145 22.6918 0
      vertex -50.2295 29 0
    endloop
  endfacet
  facet normal -0.659348 -0.751838 0
    outer loop
      vertex -41.0122 16.9878 0
      vertex -35.3082 11.9855 5
      vertex -41.0122 16.9878 5
    endloop
  endfacet
  facet normal -0.659348 -0.751838 -0
    outer loop
      vertex -35.3082 11.9855 5
      vertex -41.0122 16.9878 0
      vertex -35.3082 11.9855 0
    endloop
  endfacet
  facet normal -0.0654028 0.997859 0
    outer loop
      vertex 7.43999 1.48764 0
      vertex 0 1 5
      vertex 7.43999 1.48764 5
    endloop
  endfacet
  facet normal -0.0654028 0.997859 0
    outer loop
      vertex 0 1 5
      vertex 7.43999 1.48764 0
      vertex 0 1 0
    endloop
  endfacet
  facet normal 0.0654028 0.997859 -0
    outer loop
      vertex 0 1 0
      vertex -7.43999 1.48764 5
      vertex 0 1 5
    endloop
  endfacet
  facet normal 0.0654028 0.997859 0
    outer loop
      vertex -7.43999 1.48764 5
      vertex 0 1 0
      vertex -7.43999 1.48764 0
    endloop
  endfacet
  facet normal 0.321438 0.94693 -0
    outer loop
      vertex -14.7527 2.94223 0
      vertex -21.813 5.33887 5
      vertex -14.7527 2.94223 5
    endloop
  endfacet
  facet normal 0.321438 0.94693 0
    outer loop
      vertex -21.813 5.33887 5
      vertex -14.7527 2.94223 0
      vertex -21.813 5.33887 0
    endloop
  endfacet
  facet normal -0.831464 0.555579 0
    outer loop
      vertex 45.2211 23.3006 0
      vertex 49.0294 29 5
      vertex 49.0294 29 0
    endloop
  endfacet
  facet normal -0.831464 0.555579 0
    outer loop
      vertex 49.0294 29 5
      vertex 45.2211 23.3006 0
      vertex 45.2211 23.3006 5
    endloop
  endfacet
  facet normal -0.44229 0.896872 0
    outer loop
      vertex 28.5 8.63655 0
      vertex 21.813 5.33887 5
      vertex 28.5 8.63655 5
    endloop
  endfacet
  facet normal -0.44229 0.896872 0
    outer loop
      vertex 21.813 5.33887 5
      vertex 28.5 8.63655 0
      vertex 21.813 5.33887 0
    endloop
  endfacet
  facet normal -0.321438 0.94693 0
    outer loop
      vertex 21.813 5.33887 0
      vertex 14.7527 2.94223 5
      vertex 21.813 5.33887 5
    endloop
  endfacet
  facet normal -0.321438 0.94693 0
    outer loop
      vertex 14.7527 2.94223 5
      vertex 21.813 5.33887 0
      vertex 14.7527 2.94223 0
    endloop
  endfacet
  facet normal -0.751844 0.659341 0
    outer loop
      vertex 40.3051 17.6949 0
      vertex 45.2211 23.3006 5
      vertex 45.2211 23.3006 0
    endloop
  endfacet
  facet normal -0.751844 0.659341 0
    outer loop
      vertex 45.2211 23.3006 5
      vertex 40.3051 17.6949 0
      vertex 40.3051 17.6949 5
    endloop
  endfacet
  facet normal 0.751844 0.659341 0
    outer loop
      vertex -40.3051 17.6949 5
      vertex -45.2211 23.3006 0
      vertex -45.2211 23.3006 5
    endloop
  endfacet
  facet normal 0.751844 0.659341 0
    outer loop
      vertex -45.2211 23.3006 0
      vertex -40.3051 17.6949 5
      vertex -40.3051 17.6949 0
    endloop
  endfacet
  facet normal -0.195091 0.980785 0
    outer loop
      vertex 14.7527 2.94223 0
      vertex 7.43999 1.48764 5
      vertex 14.7527 2.94223 5
    endloop
  endfacet
  facet normal -0.195091 0.980785 0
    outer loop
      vertex 7.43999 1.48764 5
      vertex 14.7527 2.94223 0
      vertex 7.43999 1.48764 0
    endloop
  endfacet
  facet normal -0.555574 0.831467 0
    outer loop
      vertex 34.6994 12.7789 0
      vertex 28.5 8.63655 5
      vertex 34.6994 12.7789 5
    endloop
  endfacet
  facet normal -0.555574 0.831467 0
    outer loop
      vertex 28.5 8.63655 5
      vertex 34.6994 12.7789 0
      vertex 28.5 8.63655 0
    endloop
  endfacet
  facet normal 0.44229 0.896872 -0
    outer loop
      vertex -21.813 5.33887 0
      vertex -28.5 8.63655 5
      vertex -21.813 5.33887 5
    endloop
  endfacet
  facet normal 0.44229 0.896872 0
    outer loop
      vertex -28.5 8.63655 5
      vertex -21.813 5.33887 0
      vertex -28.5 8.63655 0
    endloop
  endfacet
  facet normal 0.831464 0.555579 0
    outer loop
      vertex -45.2211 23.3006 5
      vertex -49.0294 29 0
      vertex -49.0294 29 5
    endloop
  endfacet
  facet normal 0.831464 0.555579 0
    outer loop
      vertex -49.0294 29 0
      vertex -45.2211 23.3006 5
      vertex -45.2211 23.3006 0
    endloop
  endfacet
  facet normal 0.659341 0.751844 -0
    outer loop
      vertex -34.6994 12.7789 0
      vertex -40.3051 17.6949 5
      vertex -34.6994 12.7789 5
    endloop
  endfacet
  facet normal 0.659341 0.751844 0
    outer loop
      vertex -40.3051 17.6949 5
      vertex -34.6994 12.7789 0
      vertex -40.3051 17.6949 0
    endloop
  endfacet
  facet normal -0.659341 0.751844 0
    outer loop
      vertex 40.3051 17.6949 0
      vertex 34.6994 12.7789 5
      vertex 40.3051 17.6949 5
    endloop
  endfacet
  facet normal -0.659341 0.751844 0
    outer loop
      vertex 34.6994 12.7789 5
      vertex 40.3051 17.6949 0
      vertex 34.6994 12.7789 0
    endloop
  endfacet
  facet normal 0.555574 0.831467 -0
    outer loop
      vertex -28.5 8.63655 0
      vertex -34.6994 12.7789 5
      vertex -28.5 8.63655 5
    endloop
  endfacet
  facet normal 0.555574 0.831467 0
    outer loop
      vertex -34.6994 12.7789 5
      vertex -28.5 8.63655 0
      vertex -34.6994 12.7789 0
    endloop
  endfacet
  facet normal 0.195091 0.980785 -0
    outer loop
      vertex -7.43999 1.48764 0
      vertex -14.7527 2.94223 5
      vertex -7.43999 1.48764 5
    endloop
  endfacet
  facet normal 0.195091 0.980785 0
    outer loop
      vertex -14.7527 2.94223 5
      vertex -7.43999 1.48764 0
      vertex -14.7527 2.94223 0
    endloop
  endfacet
  facet normal 0 1 -0
    outer loop
      vertex -49.0294 29 0
      vertex -50.2295 29 5
      vertex -49.0294 29 5
    endloop
  endfacet
  facet normal 0 1 0
    outer loop
      vertex -50.2295 29 5
      vertex -49.0294 29 0
      vertex -50.2295 29 0
    endloop
  endfacet
  facet normal 0 1 -0
    outer loop
      vertex 50.2295 29 0
      vertex 49.0294 29 5
      vertex 50.2295 29 5
    endloop
  endfacet
  facet normal 0 1 0
    outer loop
      vertex 49.0294 29 5
      vertex 50.2295 29 0
      vertex 49.0294 29 0
    endloop
  endfacet
  facet normal -0.793391 -0.608712 0
    outer loop
      vertex -45.0835 -12.3335 0
      vertex -45.6079 -11.65 2
      vertex -45.6079 -11.65 0
    endloop
  endfacet
  facet normal -0.793391 -0.608712 0
    outer loop
      vertex -45.6079 -11.65 2
      vertex -45.0835 -12.3335 0
      vertex -45.0835 -12.3335 2
    endloop
  endfacet
  facet normal -0.923868 0.382711 0
    outer loop
      vertex -45.9376 -9.1459 0
      vertex -45.6079 -8.35 2
      vertex -45.6079 -8.35 0
    endloop
  endfacet
  facet normal -0.923868 0.382711 0
    outer loop
      vertex -45.6079 -8.35 2
      vertex -45.9376 -9.1459 0
      vertex -45.9376 -9.1459 2
    endloop
  endfacet
  facet normal -0.991452 0.130476 0
    outer loop
      vertex -46.05 -10 0
      vertex -45.9376 -9.1459 2
      vertex -45.9376 -9.1459 0
    endloop
  endfacet
  facet normal -0.991452 0.130476 0
    outer loop
      vertex -45.9376 -9.1459 2
      vertex -46.05 -10 0
      vertex -46.05 -10 2
    endloop
  endfacet
  facet normal -0.79337 0.60874 0
    outer loop
      vertex -45.6079 -8.35 0
      vertex -45.0835 -7.66655 2
      vertex -45.0835 -7.66655 0
    endloop
  endfacet
  facet normal -0.79337 0.60874 0
    outer loop
      vertex -45.0835 -7.66655 2
      vertex -45.6079 -8.35 0
      vertex -45.6079 -8.35 2
    endloop
  endfacet
  facet normal -0.608734 0.793375 0
    outer loop
      vertex -44.4 -7.14212 0
      vertex -45.0835 -7.66655 2
      vertex -44.4 -7.14212 2
    endloop
  endfacet
  facet normal -0.608734 0.793375 0
    outer loop
      vertex -45.0835 -7.66655 2
      vertex -44.4 -7.14212 0
      vertex -45.0835 -7.66655 0
    endloop
  endfacet
  facet normal -0.130533 0.991444 0
    outer loop
      vertex -42.75 -6.7 0
      vertex -43.6041 -6.81245 2
      vertex -42.75 -6.7 2
    endloop
  endfacet
  facet normal -0.130533 0.991444 0
    outer loop
      vertex -43.6041 -6.81245 2
      vertex -42.75 -6.7 0
      vertex -43.6041 -6.81245 0
    endloop
  endfacet
  facet normal -0.130476 -0.991452 0
    outer loop
      vertex -43.6041 -13.1876 0
      vertex -42.75 -13.3 2
      vertex -43.6041 -13.1876 2
    endloop
  endfacet
  facet normal -0.130476 -0.991452 -0
    outer loop
      vertex -42.75 -13.3 2
      vertex -43.6041 -13.1876 0
      vertex -42.75 -13.3 0
    endloop
  endfacet
  facet normal -0.382711 -0.923868 0
    outer loop
      vertex -44.4 -12.8579 0
      vertex -43.6041 -13.1876 2
      vertex -44.4 -12.8579 2
    endloop
  endfacet
  facet normal -0.382711 -0.923868 -0
    outer loop
      vertex -43.6041 -13.1876 2
      vertex -44.4 -12.8579 0
      vertex -43.6041 -13.1876 0
    endloop
  endfacet
  facet normal -0.608712 -0.793391 0
    outer loop
      vertex -45.0835 -12.3335 0
      vertex -44.4 -12.8579 2
      vertex -45.0835 -12.3335 2
    endloop
  endfacet
  facet normal -0.608712 -0.793391 -0
    outer loop
      vertex -44.4 -12.8579 2
      vertex -45.0835 -12.3335 0
      vertex -44.4 -12.8579 0
    endloop
  endfacet
  facet normal 0 0 1
    outer loop
      vertex -39.45 -6.7 2
      vertex -40.95 -10 2
      vertex -39.45 -13.3 2
    endloop
  endfacet
  facet normal 0 0 1
    outer loop
      vertex -39.45 -6.7 2
      vertex -41.1912 -9.1 2
      vertex -40.95 -10 2
    endloop
  endfacet
  facet normal 0 0 1
    outer loop
      vertex -39.45 -6.7 2
      vertex -41.85 -8.44115 2
      vertex -41.1912 -9.1 2
    endloop
  endfacet
  facet normal -0 0 1
    outer loop
      vertex -42.75 -6.7 2
      vertex -41.85 -8.44115 2
      vertex -39.45 -6.7 2
    endloop
  endfacet
  facet normal 0 0 1
    outer loop
      vertex -42.75 -6.7 2
      vertex -42.75 -8.2 2
      vertex -41.85 -8.44115 2
    endloop
  endfacet
  facet normal -0 0 1
    outer loop
      vertex -43.6041 -6.81245 2
      vertex -42.75 -8.2 2
      vertex -42.75 -6.7 2
    endloop
  endfacet
  facet normal 0 0 1
    outer loop
      vertex -43.6041 -6.81245 2
      vertex -43.65 -8.44115 2
      vertex -42.75 -8.2 2
    endloop
  endfacet
  facet normal -0 0 1
    outer loop
      vertex -44.4 -7.14212 2
      vertex -43.65 -8.44115 2
      vertex -43.6041 -6.81245 2
    endloop
  endfacet
  facet normal -0 0 1
    outer loop
      vertex -45.0835 -7.66655 2
      vertex -43.65 -8.44115 2
      vertex -44.4 -7.14212 2
    endloop
  endfacet
  facet normal 0 0 1
    outer loop
      vertex -43.65 -8.44115 2
      vertex -45.0835 -7.66655 2
      vertex -44.3088 -9.1 2
    endloop
  endfacet
  facet normal -0 0 1
    outer loop
      vertex -45.6079 -8.35 2
      vertex -44.3088 -9.1 2
      vertex -45.0835 -7.66655 2
    endloop
  endfacet
  facet normal -0 0 1
    outer loop
      vertex -41.1912 -10.9 2
      vertex -39.45 -13.3 2
      vertex -40.95 -10 2
    endloop
  endfacet
  facet normal -0 0 1
    outer loop
      vertex -41.85 -11.5588 2
      vertex -39.45 -13.3 2
      vertex -41.1912 -10.9 2
    endloop
  endfacet
  facet normal 0 0 1
    outer loop
      vertex -42.75 -13.3 2
      vertex -41.85 -11.5588 2
      vertex -42.75 -11.8 2
    endloop
  endfacet
  facet normal 0 0 1
    outer loop
      vertex -41.85 -11.5588 2
      vertex -42.75 -13.3 2
      vertex -39.45 -13.3 2
    endloop
  endfacet
  facet normal 0 0 1
    outer loop
      vertex -42.75 -11.8 2
      vertex -43.6041 -13.1876 2
      vertex -42.75 -13.3 2
    endloop
  endfacet
  facet normal 0 0 1
    outer loop
      vertex -43.65 -11.5588 2
      vertex -43.6041 -13.1876 2
      vertex -42.75 -11.8 2
    endloop
  endfacet
  facet normal 0 0 1
    outer loop
      vertex -45.0835 -12.3335 2
      vertex -43.65 -11.5588 2
      vertex -44.3088 -10.9 2
    endloop
  endfacet
  facet normal 0 0 1
    outer loop
      vertex -43.65 -11.5588 2
      vertex -44.4 -12.8579 2
      vertex -43.6041 -13.1876 2
    endloop
  endfacet
  facet normal -0 0 1
    outer loop
      vertex -45.9376 -10.8541 2
      vertex -44.3088 -10.9 2
      vertex -44.55 -10 2
    endloop
  endfacet
  facet normal 0 0 1
    outer loop
      vertex -45.9376 -9.1459 2
      vertex -44.3088 -9.1 2
      vertex -45.6079 -8.35 2
    endloop
  endfacet
  facet normal 0 0 1
    outer loop
      vertex -43.65 -11.5588 2
      vertex -45.0835 -12.3335 2
      vertex -44.4 -12.8579 2
    endloop
  endfacet
  facet normal 0 0 1
    outer loop
      vertex -44.3088 -9.1 2
      vertex -45.9376 -9.1459 2
      vertex -44.55 -10 2
    endloop
  endfacet
  facet normal 0 0 1
    outer loop
      vertex -44.3088 -10.9 2
      vertex -45.6079 -11.65 2
      vertex -45.0835 -12.3335 2
    endloop
  endfacet
  facet normal 0 0 1
    outer loop
      vertex -46.05 -10 2
      vertex -44.55 -10 2
      vertex -45.9376 -9.1459 2
    endloop
  endfacet
  facet normal 0 0 1
    outer loop
      vertex -44.3088 -10.9 2
      vertex -45.9376 -10.8541 2
      vertex -45.6079 -11.65 2
    endloop
  endfacet
  facet normal 0 0 1
    outer loop
      vertex -44.55 -10 2
      vertex -46.05 -10 2
      vertex -45.9376 -10.8541 2
    endloop
  endfacet
  facet normal -0.923868 -0.382711 0
    outer loop
      vertex -45.6079 -11.65 0
      vertex -45.9376 -10.8541 2
      vertex -45.9376 -10.8541 0
    endloop
  endfacet
  facet normal -0.923868 -0.382711 0
    outer loop
      vertex -45.9376 -10.8541 2
      vertex -45.6079 -11.65 0
      vertex -45.6079 -11.65 2
    endloop
  endfacet
  facet normal -0.991452 -0.130476 0
    outer loop
      vertex -45.9376 -10.8541 0
      vertex -46.05 -10 2
      vertex -46.05 -10 0
    endloop
  endfacet
  facet normal -0.991452 -0.130476 0
    outer loop
      vertex -46.05 -10 2
      vertex -45.9376 -10.8541 0
      vertex -45.9376 -10.8541 2
    endloop
  endfacet
  facet normal 0 0 -1
    outer loop
      vertex -39.45 -13.3 0
      vertex -40.95 -10 0
      vertex -39.45 -6.7 0
    endloop
  endfacet
  facet normal 0 0 -1
    outer loop
      vertex -39.45 -13.3 0
      vertex -41.1912 -10.9 0
      vertex -40.95 -10 0
    endloop
  endfacet
  facet normal 0 0 -1
    outer loop
      vertex -39.45 -13.3 0
      vertex -41.85 -11.5588 0
      vertex -41.1912 -10.9 0
    endloop
  endfacet
  facet normal 0 0 -1
    outer loop
      vertex -42.75 -13.3 0
      vertex -41.85 -11.5588 0
      vertex -39.45 -13.3 0
    endloop
  endfacet
  facet normal 0 0 -1
    outer loop
      vertex -42.75 -13.3 0
      vertex -42.75 -11.8 0
      vertex -41.85 -11.5588 0
    endloop
  endfacet
  facet normal 0 0 -1
    outer loop
      vertex -43.6041 -13.1876 0
      vertex -42.75 -11.8 0
      vertex -42.75 -13.3 0
    endloop
  endfacet
  facet normal 0 0 -1
    outer loop
      vertex -43.6041 -13.1876 0
      vertex -43.65 -11.5588 0
      vertex -42.75 -11.8 0
    endloop
  endfacet
  facet normal 0 0 -1
    outer loop
      vertex -44.4 -12.8579 0
      vertex -43.65 -11.5588 0
      vertex -43.6041 -13.1876 0
    endloop
  endfacet
  facet normal 0 0 -1
    outer loop
      vertex -45.0835 -12.3335 0
      vertex -43.65 -11.5588 0
      vertex -44.4 -12.8579 0
    endloop
  endfacet
  facet normal -0 0 -1
    outer loop
      vertex -43.65 -11.5588 0
      vertex -45.0835 -12.3335 0
      vertex -44.3088 -10.9 0
    endloop
  endfacet
  facet normal 0 0 -1
    outer loop
      vertex -45.6079 -11.65 0
      vertex -44.3088 -10.9 0
      vertex -45.0835 -12.3335 0
    endloop
  endfacet
  facet normal 0 0 -1
    outer loop
      vertex -41.1912 -9.1 0
      vertex -39.45 -6.7 0
      vertex -40.95 -10 0
    endloop
  endfacet
  facet normal 0 0 -1
    outer loop
      vertex -41.85 -8.44115 0
      vertex -39.45 -6.7 0
      vertex -41.1912 -9.1 0
    endloop
  endfacet
  facet normal 0 0 -1
    outer loop
      vertex -42.75 -6.7 0
      vertex -41.85 -8.44115 0
      vertex -42.75 -8.2 0
    endloop
  endfacet
  facet normal 0 0 -1
    outer loop
      vertex -41.85 -8.44115 0
      vertex -42.75 -6.7 0
      vertex -39.45 -6.7 0
    endloop
  endfacet
  facet normal 0 0 -1
    outer loop
      vertex -42.75 -8.2 0
      vertex -43.6041 -6.81245 0
      vertex -42.75 -6.7 0
    endloop
  endfacet
  facet normal 0 0 -1
    outer loop
      vertex -43.65 -8.44115 0
      vertex -43.6041 -6.81245 0
      vertex -42.75 -8.2 0
    endloop
  endfacet
  facet normal 0 0 -1
    outer loop
      vertex -45.0835 -7.66655 0
      vertex -43.65 -8.44115 0
      vertex -44.3088 -9.1 0
    endloop
  endfacet
  facet normal 0 0 -1
    outer loop
      vertex -43.65 -8.44115 0
      vertex -44.4 -7.14212 0
      vertex -43.6041 -6.81245 0
    endloop
  endfacet
  facet normal 0 0 -1
    outer loop
      vertex -45.9376 -9.1459 0
      vertex -44.3088 -9.1 0
      vertex -44.55 -10 0
    endloop
  endfacet
  facet normal 0 0 -1
    outer loop
      vertex -45.9376 -10.8541 0
      vertex -44.3088 -10.9 0
      vertex -45.6079 -11.65 0
    endloop
  endfacet
  facet normal 0 0 -1
    outer loop
      vertex -43.65 -8.44115 0
      vertex -45.0835 -7.66655 0
      vertex -44.4 -7.14212 0
    endloop
  endfacet
  facet normal 0 0 -1
    outer loop
      vertex -44.3088 -10.9 0
      vertex -45.9376 -10.8541 0
      vertex -44.55 -10 0
    endloop
  endfacet
  facet normal 0 0 -1
    outer loop
      vertex -44.3088 -9.1 0
      vertex -45.6079 -8.35 0
      vertex -45.0835 -7.66655 0
    endloop
  endfacet
  facet normal 0 0 -1
    outer loop
      vertex -46.05 -10 0
      vertex -44.55 -10 0
      vertex -45.9376 -10.8541 0
    endloop
  endfacet
  facet normal -0 0 -1
    outer loop
      vertex -44.3088 -9.1 0
      vertex -45.9376 -9.1459 0
      vertex -45.6079 -8.35 0
    endloop
  endfacet
  facet normal 0 0 -1
    outer loop
      vertex -44.55 -10 0
      vertex -46.05 -10 0
      vertex -45.9376 -9.1459 0
    endloop
  endfacet
  facet normal -0.382681 0.923881 0
    outer loop
      vertex -43.6041 -6.81245 0
      vertex -44.4 -7.14212 2
      vertex -43.6041 -6.81245 2
    endloop
  endfacet
  facet normal -0.382681 0.923881 0
    outer loop
      vertex -44.4 -7.14212 2
      vertex -43.6041 -6.81245 0
      vertex -44.4 -7.14212 0
    endloop
  endfacet
  facet normal 1 -0 0
    outer loop
      vertex -39.45 -13.3 2
      vertex -39.45 -6.7 0
      vertex -39.45 -6.7 2
    endloop
  endfacet
  facet normal 1 0 0
    outer loop
      vertex -39.45 -6.7 0
      vertex -39.45 -13.3 2
      vertex -39.45 -13.3 0
    endloop
  endfacet
  facet normal 0 1 -0
    outer loop
      vertex -39.45 -6.7 0
      vertex -42.75 -6.7 2
      vertex -39.45 -6.7 2
    endloop
  endfacet
  facet normal 0 1 0
    outer loop
      vertex -42.75 -6.7 2
      vertex -39.45 -6.7 0
      vertex -42.75 -6.7 0
    endloop
  endfacet
  facet normal 0 -1 0
    outer loop
      vertex -42.75 -13.3 0
      vertex -39.45 -13.3 2
      vertex -42.75 -13.3 2
    endloop
  endfacet
  facet normal 0 -1 -0
    outer loop
      vertex -39.45 -13.3 2
      vertex -42.75 -13.3 0
      vertex -39.45 -13.3 0
    endloop
  endfacet
  facet normal 0.707134 -0.70708 0
    outer loop
      vertex -44.3088 -9.1 2
      vertex -43.65 -8.44115 0
      vertex -43.65 -8.44115 2
    endloop
  endfacet
  facet normal 0.707134 -0.70708 0
    outer loop
      vertex -43.65 -8.44115 0
      vertex -44.3088 -9.1 2
      vertex -44.3088 -9.1 0
    endloop
  endfacet
  facet normal 0.965914 -0.258865 0
    outer loop
      vertex -44.55 -10 2
      vertex -44.3088 -9.1 0
      vertex -44.3088 -9.1 2
    endloop
  endfacet
  facet normal 0.965914 -0.258865 0
    outer loop
      vertex -44.3088 -9.1 0
      vertex -44.55 -10 2
      vertex -44.55 -10 0
    endloop
  endfacet
  facet normal 0.258815 -0.965927 0
    outer loop
      vertex -43.65 -8.44115 0
      vertex -42.75 -8.2 2
      vertex -43.65 -8.44115 2
    endloop
  endfacet
  facet normal 0.258815 -0.965927 0
    outer loop
      vertex -42.75 -8.2 2
      vertex -43.65 -8.44115 0
      vertex -42.75 -8.2 0
    endloop
  endfacet
  facet normal 0.965914 0.258865 0
    outer loop
      vertex -44.3088 -10.9 2
      vertex -44.55 -10 0
      vertex -44.55 -10 2
    endloop
  endfacet
  facet normal 0.965914 0.258865 0
    outer loop
      vertex -44.55 -10 0
      vertex -44.3088 -10.9 2
      vertex -44.3088 -10.9 0
    endloop
  endfacet
  facet normal -0.707134 -0.70708 0
    outer loop
      vertex -41.1912 -9.1 0
      vertex -41.85 -8.44115 2
      vertex -41.85 -8.44115 0
    endloop
  endfacet
  facet normal -0.707134 -0.70708 0
    outer loop
      vertex -41.85 -8.44115 2
      vertex -41.1912 -9.1 0
      vertex -41.1912 -9.1 2
    endloop
  endfacet
  facet normal -0.258865 0.965914 0
    outer loop
      vertex -41.85 -11.5588 0
      vertex -42.75 -11.8 2
      vertex -41.85 -11.5588 2
    endloop
  endfacet
  facet normal -0.258865 0.965914 0
    outer loop
      vertex -42.75 -11.8 2
      vertex -41.85 -11.5588 0
      vertex -42.75 -11.8 0
    endloop
  endfacet
  facet normal -0.965914 -0.258865 0
    outer loop
      vertex -40.95 -10 0
      vertex -41.1912 -9.1 2
      vertex -41.1912 -9.1 0
    endloop
  endfacet
  facet normal -0.965914 -0.258865 0
    outer loop
      vertex -41.1912 -9.1 2
      vertex -40.95 -10 0
      vertex -40.95 -10 2
    endloop
  endfacet
  facet normal 0.707107 0.707107 0
    outer loop
      vertex -43.65 -11.5588 2
      vertex -44.3088 -10.9 0
      vertex -44.3088 -10.9 2
    endloop
  endfacet
  facet normal 0.707107 0.707107 0
    outer loop
      vertex -44.3088 -10.9 0
      vertex -43.65 -11.5588 2
      vertex -43.65 -11.5588 0
    endloop
  endfacet
  facet normal -0.258815 -0.965927 0
    outer loop
      vertex -42.75 -8.2 0
      vertex -41.85 -8.44115 2
      vertex -42.75 -8.2 2
    endloop
  endfacet
  facet normal -0.258815 -0.965927 -0
    outer loop
      vertex -41.85 -8.44115 2
      vertex -42.75 -8.2 0
      vertex -41.85 -8.44115 0
    endloop
  endfacet
  facet normal 0.258865 0.965914 -0
    outer loop
      vertex -42.75 -11.8 0
      vertex -43.65 -11.5588 2
      vertex -42.75 -11.8 2
    endloop
  endfacet
  facet normal 0.258865 0.965914 0
    outer loop
      vertex -43.65 -11.5588 2
      vertex -42.75 -11.8 0
      vertex -43.65 -11.5588 0
    endloop
  endfacet
  facet normal -0.707107 0.707107 0
    outer loop
      vertex -41.85 -11.5588 0
      vertex -41.1912 -10.9 2
      vertex -41.1912 -10.9 0
    endloop
  endfacet
  facet normal -0.707107 0.707107 0
    outer loop
      vertex -41.1912 -10.9 2
      vertex -41.85 -11.5588 0
      vertex -41.85 -11.5588 2
    endloop
  endfacet
  facet normal -0.965914 0.258865 0
    outer loop
      vertex -41.1912 -10.9 0
      vertex -40.95 -10 2
      vertex -40.95 -10 0
    endloop
  endfacet
  facet normal -0.965914 0.258865 0
    outer loop
      vertex -40.95 -10 2
      vertex -41.1912 -10.9 0
      vertex -41.1912 -10.9 2
    endloop
  endfacet
  facet normal 0.793391 -0.608712 0
    outer loop
      vertex 45.0835 -12.3335 2
      vertex 45.6079 -11.65 0
      vertex 45.6079 -11.65 2
    endloop
  endfacet
  facet normal 0.793391 -0.608712 0
    outer loop
      vertex 45.6079 -11.65 0
      vertex 45.0835 -12.3335 2
      vertex 45.0835 -12.3335 0
    endloop
  endfacet
  facet normal 0.923868 0.382711 0
    outer loop
      vertex 45.9376 -9.1459 2
      vertex 45.6079 -8.35 0
      vertex 45.6079 -8.35 2
    endloop
  endfacet
  facet normal 0.923868 0.382711 0
    outer loop
      vertex 45.6079 -8.35 0
      vertex 45.9376 -9.1459 2
      vertex 45.9376 -9.1459 0
    endloop
  endfacet
  facet normal 0.991452 0.130476 0
    outer loop
      vertex 46.05 -10 2
      vertex 45.9376 -9.1459 0
      vertex 45.9376 -9.1459 2
    endloop
  endfacet
  facet normal 0.991452 0.130476 0
    outer loop
      vertex 45.9376 -9.1459 0
      vertex 46.05 -10 2
      vertex 46.05 -10 0
    endloop
  endfacet
  facet normal 0.79337 0.60874 0
    outer loop
      vertex 45.6079 -8.35 2
      vertex 45.0835 -7.66655 0
      vertex 45.0835 -7.66655 2
    endloop
  endfacet
  facet normal 0.79337 0.60874 0
    outer loop
      vertex 45.0835 -7.66655 0
      vertex 45.6079 -8.35 2
      vertex 45.6079 -8.35 0
    endloop
  endfacet
  facet normal 0.608734 0.793375 -0
    outer loop
      vertex 45.0835 -7.66655 0
      vertex 44.4 -7.14212 2
      vertex 45.0835 -7.66655 2
    endloop
  endfacet
  facet normal 0.608734 0.793375 0
    outer loop
      vertex 44.4 -7.14212 2
      vertex 45.0835 -7.66655 0
      vertex 44.4 -7.14212 0
    endloop
  endfacet
  facet normal 0.130533 0.991444 -0
    outer loop
      vertex 43.6041 -6.81245 0
      vertex 42.75 -6.7 2
      vertex 43.6041 -6.81245 2
    endloop
  endfacet
  facet normal 0.130533 0.991444 0
    outer loop
      vertex 42.75 -6.7 2
      vertex 43.6041 -6.81245 0
      vertex 42.75 -6.7 0
    endloop
  endfacet
  facet normal 0.130476 -0.991452 0
    outer loop
      vertex 42.75 -13.3 0
      vertex 43.6041 -13.1876 2
      vertex 42.75 -13.3 2
    endloop
  endfacet
  facet normal 0.130476 -0.991452 0
    outer loop
      vertex 43.6041 -13.1876 2
      vertex 42.75 -13.3 0
      vertex 43.6041 -13.1876 0
    endloop
  endfacet
  facet normal 0.382711 -0.923868 0
    outer loop
      vertex 43.6041 -13.1876 0
      vertex 44.4 -12.8579 2
      vertex 43.6041 -13.1876 2
    endloop
  endfacet
  facet normal 0.382711 -0.923868 0
    outer loop
      vertex 44.4 -12.8579 2
      vertex 43.6041 -13.1876 0
      vertex 44.4 -12.8579 0
    endloop
  endfacet
  facet normal 0.608712 -0.793391 0
    outer loop
      vertex 44.4 -12.8579 0
      vertex 45.0835 -12.3335 2
      vertex 44.4 -12.8579 2
    endloop
  endfacet
  facet normal 0.608712 -0.793391 0
    outer loop
      vertex 45.0835 -12.3335 2
      vertex 44.4 -12.8579 0
      vertex 45.0835 -12.3335 0
    endloop
  endfacet
  facet normal 0 0 1
    outer loop
      vertex 44.55 -10 2
      vertex 46.05 -10 2
      vertex 45.9376 -9.1459 2
    endloop
  endfacet
  facet normal -0 0 1
    outer loop
      vertex 44.3088 -9.1 2
      vertex 45.9376 -9.1459 2
      vertex 45.6079 -8.35 2
    endloop
  endfacet
  facet normal 0 0 1
    outer loop
      vertex 46.05 -10 2
      vertex 44.55 -10 2
      vertex 45.9376 -10.8541 2
    endloop
  endfacet
  facet normal 0 0 1
    outer loop
      vertex 44.3088 -9.1 2
      vertex 45.6079 -8.35 2
      vertex 45.0835 -7.66655 2
    endloop
  endfacet
  facet normal 0 0 1
    outer loop
      vertex 44.3088 -10.9 2
      vertex 45.9376 -10.8541 2
      vertex 44.55 -10 2
    endloop
  endfacet
  facet normal 0 0 1
    outer loop
      vertex 45.9376 -10.8541 2
      vertex 44.3088 -10.9 2
      vertex 45.6079 -11.65 2
    endloop
  endfacet
  facet normal 0 0 1
    outer loop
      vertex 43.65 -8.44115 2
      vertex 45.0835 -7.66655 2
      vertex 44.4 -7.14212 2
    endloop
  endfacet
  facet normal 0 0 1
    outer loop
      vertex 45.9376 -9.1459 2
      vertex 44.3088 -9.1 2
      vertex 44.55 -10 2
    endloop
  endfacet
  facet normal 0 0 1
    outer loop
      vertex 45.0835 -7.66655 2
      vertex 43.65 -8.44115 2
      vertex 44.3088 -9.1 2
    endloop
  endfacet
  facet normal 0 0 1
    outer loop
      vertex 43.6041 -6.81245 2
      vertex 43.65 -8.44115 2
      vertex 44.4 -7.14212 2
    endloop
  endfacet
  facet normal 0 0 1
    outer loop
      vertex 42.75 -8.2 2
      vertex 43.6041 -6.81245 2
      vertex 42.75 -6.7 2
    endloop
  endfacet
  facet normal 0 0 1
    outer loop
      vertex 43.6041 -6.81245 2
      vertex 42.75 -8.2 2
      vertex 43.65 -8.44115 2
    endloop
  endfacet
  facet normal 0 0 1
    outer loop
      vertex 42.75 -6.7 2
      vertex 41.85 -8.44115 2
      vertex 42.75 -8.2 2
    endloop
  endfacet
  facet normal -0 0 1
    outer loop
      vertex 39.45 -6.7 2
      vertex 41.85 -8.44115 2
      vertex 42.75 -6.7 2
    endloop
  endfacet
  facet normal 0 0 1
    outer loop
      vertex 41.1912 -9.1 2
      vertex 39.45 -6.7 2
      vertex 40.95 -10 2
    endloop
  endfacet
  facet normal 0 0 1
    outer loop
      vertex 41.85 -8.44115 2
      vertex 39.45 -6.7 2
      vertex 41.1912 -9.1 2
    endloop
  endfacet
  facet normal 0 0 1
    outer loop
      vertex 45.6079 -11.65 2
      vertex 44.3088 -10.9 2
      vertex 45.0835 -12.3335 2
    endloop
  endfacet
  facet normal -0 0 1
    outer loop
      vertex 43.65 -11.5588 2
      vertex 45.0835 -12.3335 2
      vertex 44.3088 -10.9 2
    endloop
  endfacet
  facet normal 0 0 1
    outer loop
      vertex 45.0835 -12.3335 2
      vertex 43.65 -11.5588 2
      vertex 44.4 -12.8579 2
    endloop
  endfacet
  facet normal 0 0 1
    outer loop
      vertex 43.65 -11.5588 2
      vertex 43.6041 -13.1876 2
      vertex 44.4 -12.8579 2
    endloop
  endfacet
  facet normal -0 0 1
    outer loop
      vertex 42.75 -11.8 2
      vertex 43.6041 -13.1876 2
      vertex 43.65 -11.5588 2
    endloop
  endfacet
  facet normal 0 0 1
    outer loop
      vertex 42.75 -11.8 2
      vertex 42.75 -13.3 2
      vertex 43.6041 -13.1876 2
    endloop
  endfacet
  facet normal 0 0 1
    outer loop
      vertex 41.85 -11.5588 2
      vertex 42.75 -13.3 2
      vertex 42.75 -11.8 2
    endloop
  endfacet
  facet normal 0 0 1
    outer loop
      vertex 39.45 -13.3 2
      vertex 41.85 -11.5588 2
      vertex 41.1912 -10.9 2
    endloop
  endfacet
  facet normal 0 0 1
    outer loop
      vertex 39.45 -13.3 2
      vertex 40.95 -10 2
      vertex 39.45 -6.7 2
    endloop
  endfacet
  facet normal 0 0 1
    outer loop
      vertex 41.85 -11.5588 2
      vertex 39.45 -13.3 2
      vertex 42.75 -13.3 2
    endloop
  endfacet
  facet normal 0 0 1
    outer loop
      vertex 40.95 -10 2
      vertex 39.45 -13.3 2
      vertex 41.1912 -10.9 2
    endloop
  endfacet
  facet normal 0.923868 -0.382711 0
    outer loop
      vertex 45.6079 -11.65 2
      vertex 45.9376 -10.8541 0
      vertex 45.9376 -10.8541 2
    endloop
  endfacet
  facet normal 0.923868 -0.382711 0
    outer loop
      vertex 45.9376 -10.8541 0
      vertex 45.6079 -11.65 2
      vertex 45.6079 -11.65 0
    endloop
  endfacet
  facet normal 0.991452 -0.130476 0
    outer loop
      vertex 45.9376 -10.8541 2
      vertex 46.05 -10 0
      vertex 46.05 -10 2
    endloop
  endfacet
  facet normal 0.991452 -0.130476 0
    outer loop
      vertex 46.05 -10 0
      vertex 45.9376 -10.8541 2
      vertex 45.9376 -10.8541 0
    endloop
  endfacet
  facet normal 0 0 -1
    outer loop
      vertex 44.55 -10 0
      vertex 46.05 -10 0
      vertex 45.9376 -10.8541 0
    endloop
  endfacet
  facet normal 0 0 -1
    outer loop
      vertex 44.3088 -10.9 0
      vertex 45.9376 -10.8541 0
      vertex 45.6079 -11.65 0
    endloop
  endfacet
  facet normal 0 0 -1
    outer loop
      vertex 46.05 -10 0
      vertex 44.55 -10 0
      vertex 45.9376 -9.1459 0
    endloop
  endfacet
  facet normal 0 0 -1
    outer loop
      vertex 44.3088 -10.9 0
      vertex 45.6079 -11.65 0
      vertex 45.0835 -12.3335 0
    endloop
  endfacet
  facet normal 0 0 -1
    outer loop
      vertex 44.3088 -9.1 0
      vertex 45.9376 -9.1459 0
      vertex 44.55 -10 0
    endloop
  endfacet
  facet normal 0 0 -1
    outer loop
      vertex 45.9376 -9.1459 0
      vertex 44.3088 -9.1 0
      vertex 45.6079 -8.35 0
    endloop
  endfacet
  facet normal 0 0 -1
    outer loop
      vertex 43.65 -11.5588 0
      vertex 45.0835 -12.3335 0
      vertex 44.4 -12.8579 0
    endloop
  endfacet
  facet normal -0 0 -1
    outer loop
      vertex 45.9376 -10.8541 0
      vertex 44.3088 -10.9 0
      vertex 44.55 -10 0
    endloop
  endfacet
  facet normal 0 0 -1
    outer loop
      vertex 45.0835 -12.3335 0
      vertex 43.65 -11.5588 0
      vertex 44.3088 -10.9 0
    endloop
  endfacet
  facet normal 0 0 -1
    outer loop
      vertex 43.6041 -13.1876 0
      vertex 43.65 -11.5588 0
      vertex 44.4 -12.8579 0
    endloop
  endfacet
  facet normal 0 0 -1
    outer loop
      vertex 42.75 -11.8 0
      vertex 43.6041 -13.1876 0
      vertex 42.75 -13.3 0
    endloop
  endfacet
  facet normal 0 0 -1
    outer loop
      vertex 43.6041 -13.1876 0
      vertex 42.75 -11.8 0
      vertex 43.65 -11.5588 0
    endloop
  endfacet
  facet normal 0 0 -1
    outer loop
      vertex 42.75 -13.3 0
      vertex 41.85 -11.5588 0
      vertex 42.75 -11.8 0
    endloop
  endfacet
  facet normal 0 0 -1
    outer loop
      vertex 39.45 -13.3 0
      vertex 41.85 -11.5588 0
      vertex 42.75 -13.3 0
    endloop
  endfacet
  facet normal -0 0 -1
    outer loop
      vertex 41.1912 -10.9 0
      vertex 39.45 -13.3 0
      vertex 40.95 -10 0
    endloop
  endfacet
  facet normal -0 0 -1
    outer loop
      vertex 41.85 -11.5588 0
      vertex 39.45 -13.3 0
      vertex 41.1912 -10.9 0
    endloop
  endfacet
  facet normal -0 0 -1
    outer loop
      vertex 45.6079 -8.35 0
      vertex 44.3088 -9.1 0
      vertex 45.0835 -7.66655 0
    endloop
  endfacet
  facet normal 0 0 -1
    outer loop
      vertex 43.65 -8.44115 0
      vertex 45.0835 -7.66655 0
      vertex 44.3088 -9.1 0
    endloop
  endfacet
  facet normal -0 0 -1
    outer loop
      vertex 45.0835 -7.66655 0
      vertex 43.65 -8.44115 0
      vertex 44.4 -7.14212 0
    endloop
  endfacet
  facet normal 0 0 -1
    outer loop
      vertex 43.65 -8.44115 0
      vertex 43.6041 -6.81245 0
      vertex 44.4 -7.14212 0
    endloop
  endfacet
  facet normal 0 0 -1
    outer loop
      vertex 42.75 -8.2 0
      vertex 43.6041 -6.81245 0
      vertex 43.65 -8.44115 0
    endloop
  endfacet
  facet normal 0 0 -1
    outer loop
      vertex 42.75 -8.2 0
      vertex 42.75 -6.7 0
      vertex 43.6041 -6.81245 0
    endloop
  endfacet
  facet normal 0 0 -1
    outer loop
      vertex 41.85 -8.44115 0
      vertex 42.75 -6.7 0
      vertex 42.75 -8.2 0
    endloop
  endfacet
  facet normal 0 0 -1
    outer loop
      vertex 39.45 -6.7 0
      vertex 41.85 -8.44115 0
      vertex 41.1912 -9.1 0
    endloop
  endfacet
  facet normal 0 0 -1
    outer loop
      vertex 39.45 -6.7 0
      vertex 40.95 -10 0
      vertex 39.45 -13.3 0
    endloop
  endfacet
  facet normal 0 0 -1
    outer loop
      vertex 41.85 -8.44115 0
      vertex 39.45 -6.7 0
      vertex 42.75 -6.7 0
    endloop
  endfacet
  facet normal 0 0 -1
    outer loop
      vertex 40.95 -10 0
      vertex 39.45 -6.7 0
      vertex 41.1912 -9.1 0
    endloop
  endfacet
  facet normal 0.382681 0.923881 -0
    outer loop
      vertex 44.4 -7.14212 0
      vertex 43.6041 -6.81245 2
      vertex 44.4 -7.14212 2
    endloop
  endfacet
  facet normal 0.382681 0.923881 0
    outer loop
      vertex 43.6041 -6.81245 2
      vertex 44.4 -7.14212 0
      vertex 43.6041 -6.81245 0
    endloop
  endfacet
  facet normal -1 0 0
    outer loop
      vertex 39.45 -13.3 0
      vertex 39.45 -6.7 2
      vertex 39.45 -6.7 0
    endloop
  endfacet
  facet normal -1 -0 0
    outer loop
      vertex 39.45 -6.7 2
      vertex 39.45 -13.3 0
      vertex 39.45 -13.3 2
    endloop
  endfacet
  facet normal 0 1 -0
    outer loop
      vertex 42.75 -6.7 0
      vertex 39.45 -6.7 2
      vertex 42.75 -6.7 2
    endloop
  endfacet
  facet normal 0 1 0
    outer loop
      vertex 39.45 -6.7 2
      vertex 42.75 -6.7 0
      vertex 39.45 -6.7 0
    endloop
  endfacet
  facet normal 0 -1 0
    outer loop
      vertex 39.45 -13.3 0
      vertex 42.75 -13.3 2
      vertex 39.45 -13.3 2
    endloop
  endfacet
  facet normal 0 -1 -0
    outer loop
      vertex 42.75 -13.3 2
      vertex 39.45 -13.3 0
      vertex 42.75 -13.3 0
    endloop
  endfacet
  facet normal -0.707134 -0.70708 0
    outer loop
      vertex 44.3088 -9.1 0
      vertex 43.65 -8.44115 2
      vertex 43.65 -8.44115 0
    endloop
  endfacet
  facet normal -0.707134 -0.70708 0
    outer loop
      vertex 43.65 -8.44115 2
      vertex 44.3088 -9.1 0
      vertex 44.3088 -9.1 2
    endloop
  endfacet
  facet normal -0.965914 -0.258865 0
    outer loop
      vertex 44.55 -10 0
      vertex 44.3088 -9.1 2
      vertex 44.3088 -9.1 0
    endloop
  endfacet
  facet normal -0.965914 -0.258865 0
    outer loop
      vertex 44.3088 -9.1 2
      vertex 44.55 -10 0
      vertex 44.55 -10 2
    endloop
  endfacet
  facet normal -0.258815 -0.965927 0
    outer loop
      vertex 42.75 -8.2 0
      vertex 43.65 -8.44115 2
      vertex 42.75 -8.2 2
    endloop
  endfacet
  facet normal -0.258815 -0.965927 -0
    outer loop
      vertex 43.65 -8.44115 2
      vertex 42.75 -8.2 0
      vertex 43.65 -8.44115 0
    endloop
  endfacet
  facet normal -0.965914 0.258865 0
    outer loop
      vertex 44.3088 -10.9 0
      vertex 44.55 -10 2
      vertex 44.55 -10 0
    endloop
  endfacet
  facet normal -0.965914 0.258865 0
    outer loop
      vertex 44.55 -10 2
      vertex 44.3088 -10.9 0
      vertex 44.3088 -10.9 2
    endloop
  endfacet
  facet normal 0.707134 -0.70708 0
    outer loop
      vertex 41.1912 -9.1 2
      vertex 41.85 -8.44115 0
      vertex 41.85 -8.44115 2
    endloop
  endfacet
  facet normal 0.707134 -0.70708 0
    outer loop
      vertex 41.85 -8.44115 0
      vertex 41.1912 -9.1 2
      vertex 41.1912 -9.1 0
    endloop
  endfacet
  facet normal 0.258865 0.965914 -0
    outer loop
      vertex 42.75 -11.8 0
      vertex 41.85 -11.5588 2
      vertex 42.75 -11.8 2
    endloop
  endfacet
  facet normal 0.258865 0.965914 0
    outer loop
      vertex 41.85 -11.5588 2
      vertex 42.75 -11.8 0
      vertex 41.85 -11.5588 0
    endloop
  endfacet
  facet normal 0.965914 -0.258865 0
    outer loop
      vertex 40.95 -10 2
      vertex 41.1912 -9.1 0
      vertex 41.1912 -9.1 2
    endloop
  endfacet
  facet normal 0.965914 -0.258865 0
    outer loop
      vertex 41.1912 -9.1 0
      vertex 40.95 -10 2
      vertex 40.95 -10 0
    endloop
  endfacet
  facet normal -0.707107 0.707107 0
    outer loop
      vertex 43.65 -11.5588 0
      vertex 44.3088 -10.9 2
      vertex 44.3088 -10.9 0
    endloop
  endfacet
  facet normal -0.707107 0.707107 0
    outer loop
      vertex 44.3088 -10.9 2
      vertex 43.65 -11.5588 0
      vertex 43.65 -11.5588 2
    endloop
  endfacet
  facet normal 0.258815 -0.965927 0
    outer loop
      vertex 41.85 -8.44115 0
      vertex 42.75 -8.2 2
      vertex 41.85 -8.44115 2
    endloop
  endfacet
  facet normal 0.258815 -0.965927 0
    outer loop
      vertex 42.75 -8.2 2
      vertex 41.85 -8.44115 0
      vertex 42.75 -8.2 0
    endloop
  endfacet
  facet normal -0.258865 0.965914 0
    outer loop
      vertex 43.65 -11.5588 0
      vertex 42.75 -11.8 2
      vertex 43.65 -11.5588 2
    endloop
  endfacet
  facet normal -0.258865 0.965914 0
    outer loop
      vertex 42.75 -11.8 2
      vertex 43.65 -11.5588 0
      vertex 42.75 -11.8 0
    endloop
  endfacet
  facet normal 0.707107 0.707107 0
    outer loop
      vertex 41.85 -11.5588 2
      vertex 41.1912 -10.9 0
      vertex 41.1912 -10.9 2
    endloop
  endfacet
  facet normal 0.707107 0.707107 0
    outer loop
      vertex 41.1912 -10.9 0
      vertex 41.85 -11.5588 2
      vertex 41.85 -11.5588 0
    endloop
  endfacet
  facet normal 0.965914 0.258865 0
    outer loop
      vertex 41.1912 -10.9 2
      vertex 40.95 -10 0
      vertex 40.95 -10 2
    endloop
  endfacet
  facet normal 0.965914 0.258865 0
    outer loop
      vertex 40.95 -10 0
      vertex 41.1912 -10.9 2
      vertex 41.1912 -10.9 0
    endloop
  endfacet
  facet normal 1 -0 0
    outer loop
      vertex 39.45 -13.3 2
      vertex 39.45 -6.7 0
      vertex 39.45 -6.7 2
    endloop
  endfacet
  facet normal 1 0 0
    outer loop
      vertex 39.45 -6.7 0
      vertex 39.45 -13.3 2
      vertex 39.45 -13.3 0
    endloop
  endfacet
  facet normal -0 0 1
    outer loop
      vertex -39.45 -6.7 2
      vertex 39.45 -13.3 2
      vertex 39.45 -6.7 2
    endloop
  endfacet
  facet normal 0 0 1
    outer loop
      vertex 39.45 -13.3 2
      vertex -39.45 -6.7 2
      vertex -39.45 -13.3 2
    endloop
  endfacet
  facet normal 0 0 -1
    outer loop
      vertex -39.45 -13.3 0
      vertex 39.45 -6.7 0
      vertex 39.45 -13.3 0
    endloop
  endfacet
  facet normal -0 0 -1
    outer loop
      vertex 39.45 -6.7 0
      vertex -39.45 -13.3 0
      vertex -39.45 -6.7 0
    endloop
  endfacet
  facet normal -1 0 0
    outer loop
      vertex -39.45 -13.3 0
      vertex -39.45 -6.7 2
      vertex -39.45 -6.7 0
    endloop
  endfacet
  facet normal -1 -0 0
    outer loop
      vertex -39.45 -6.7 2
      vertex -39.45 -13.3 0
      vertex -39.45 -13.3 2
    endloop
  endfacet
  facet normal 0 1 -0
    outer loop
      vertex 39.45 -6.7 0
      vertex -39.45 -6.7 2
      vertex 39.45 -6.7 2
    endloop
  endfacet
  facet normal 0 1 0
    outer loop
      vertex -39.45 -6.7 2
      vertex 39.45 -6.7 0
      vertex -39.45 -6.7 0
    endloop
  endfacet
  facet normal 0 -1 0
    outer loop
      vertex -39.45 -13.3 0
      vertex 39.45 -13.3 2
      vertex -39.45 -13.3 2
    endloop
  endfacet
  facet normal 0 -1 -0
    outer loop
      vertex 39.45 -13.3 2
      vertex -39.45 -13.3 0
      vertex 39.45 -13.3 0
    endloop
  endfacet
endsolid OpenSCAD_Model
